<svg width="160" height="38" viewBox="0 0 160 38" fill="none" xmlns="http://www.w3.org/2000/svg">
<g clip-path="url(#clip0)">
<path d="M70.3791 12.515C71.5022 12.515 72.4006 12.8184 72.8498 13.046L73.1493 13.1976L73.9729 10.1637L73.7483 10.0879C72.9996 9.70862 71.577 9.48108 70.454 9.48108C64.9884 9.48108 61.1699 13.7286 61.1699 19.7964C61.1699 26.0919 64.3894 29.8084 69.7801 29.8084C71.2775 29.8084 72.7001 29.505 73.6734 29.0499L73.8232 28.9741L73.3739 26.016L73.0745 26.1677C72.176 26.5469 71.3524 26.6986 70.5288 26.6986C67.3842 26.6986 65.4376 24.1198 65.4376 19.7964C65.4376 16.1557 66.935 12.515 70.3791 12.515Z" fill="#A7A5A6"/>
<path d="M85.2785 21.0101C84.979 22.1478 84.7544 23.1338 84.5298 23.9681C84.5298 23.8923 84.5298 23.8164 84.4549 23.7406C84.2303 22.9063 84.0806 21.9961 83.7811 20.9342L80.7114 9.70866H76.2939L82.1339 27.8364C82.2088 28.064 82.2088 28.2156 82.2088 28.4432C82.2088 28.6707 82.2088 28.8224 81.9842 29.2775C81.6098 30.1119 80.936 31.4013 79.9626 32.3873C78.9893 33.4492 77.8662 34.2835 76.818 34.7386L76.5934 34.8903L78.1657 38.0001L78.3903 37.9242C78.7647 37.7725 80.6365 36.9382 82.5831 34.8903C85.3534 31.8564 86.9257 27.0779 88.2734 22.3753L92.0918 9.63281H87.899L85.2785 21.0101Z" fill="#A7A5A6"/>
<path d="M103.323 9.40523C101.301 9.40523 99.8037 10.0879 98.6806 11.529V1.44116H94.4878V24.5749C94.4878 25.4851 94.4129 26.8503 94.3381 27.9881C94.3381 28.4432 94.2632 28.8224 94.2632 29.2016V29.505H97.9319L98.1565 27.3813C98.9052 28.5949 100.178 29.8084 102.574 29.8084C106.168 29.8084 109.762 26.6228 109.762 19.4172C109.762 13.2735 107.216 9.40523 103.323 9.40523ZM105.569 19.5689C105.569 22.2236 105.12 26.6986 101.9 26.6986C100.927 26.6986 99.579 26.1677 98.7555 23.513C98.6057 23.2855 98.6057 22.8304 98.6057 22.4511V17.0659C98.6057 16.6108 98.6057 16.1557 98.6806 15.7765C98.9801 14.2595 100.253 12.5909 101.825 12.5909C105.269 12.515 105.569 17.4452 105.569 19.5689Z" fill="#A7A5A6"/>
<path d="M120.169 9.40527C114.329 9.40527 112.307 14.9422 112.307 19.6448C112.307 27.1538 116.275 29.8085 119.944 29.8085C123.538 29.8085 127.805 27.1538 127.805 19.5689C127.731 12.06 123.837 9.40527 120.169 9.40527ZM120.094 26.8504C116.874 26.8504 116.425 22.2995 116.425 19.6448C116.425 17.4452 116.799 12.4392 120.019 12.4392C123.238 12.4392 123.538 17.4452 123.538 19.6448C123.538 21.7685 123.163 26.8504 120.094 26.8504Z" fill="#A7A5A6"/>
<path d="M130.201 12.8184H138.138C137.913 13.1976 137.688 13.5768 137.389 13.9561C137.09 14.4112 136.79 14.8663 136.491 15.3214L129.303 27.2295L129.228 27.3054V29.505H142.78V26.3952H134.02C134.244 26.016 134.469 25.6367 134.768 25.2575C135.068 24.8024 135.367 24.3473 135.667 23.8922L142.78 12.2116V12.1357V9.78442H130.126V12.8184H130.201Z" fill="#A7A5A6"/>
<path d="M160 29.2016C160 28.7465 159.925 28.2156 159.925 27.6847C159.85 26.6228 159.776 25.4092 159.776 23.9681V9.70862H155.583V22.6787C155.583 23.3613 155.508 23.8923 155.433 24.3473C155.283 25.1817 154.385 26.6986 152.438 26.6986C150.491 26.6986 149.668 25.2575 149.668 21.6927V9.70862H145.475V22.1477C145.475 27.3813 147.347 29.8084 151.315 29.8084C153.486 29.8084 155.133 28.8224 156.107 27.7605L156.331 29.505H160V29.2016Z" fill="#A7A5A6"/>
<path d="M47.9174 25.2576C47.9174 30.9462 43.3503 35.4971 37.8098 35.4971C32.1944 35.4971 27.7021 30.8704 27.7021 25.2576C27.7021 19.569 32.2693 15.0181 37.8098 15.0181C43.3503 15.0181 47.9174 19.569 47.9174 25.2576ZM37.7349 21.1618C35.4888 21.1618 33.617 22.9821 33.617 25.3334C33.617 27.6089 35.4139 29.5051 37.7349 29.5051C39.981 29.5051 41.8528 27.6847 41.8528 25.3334C41.8528 22.9821 39.981 21.1618 37.7349 21.1618Z" fill="#92D0E1"/>
<path d="M56.9021 7.43315C56.9021 10.9222 54.057 13.8044 50.6129 13.8044C47.1688 13.8044 44.3237 10.9222 44.3237 7.43315C44.3237 3.94413 47.1688 1.06189 50.6129 1.06189C54.057 1.06189 56.9021 3.94413 56.9021 7.43315ZM50.6129 4.8543C49.1904 4.8543 48.0673 5.99203 48.0673 7.43315C48.0673 8.87426 49.1904 10.012 50.6129 10.012C52.0355 10.012 53.1585 8.87426 53.1585 7.43315C53.1585 5.99203 52.0355 4.8543 50.6129 4.8543Z" fill="#B1DEEA"/>
<path d="M32.2695 16.3832C32.2695 25.4092 25.007 32.7665 16.0973 32.7665C7.26252 32.6906 0 25.4092 0 16.3832C0 7.35729 7.26252 0 16.1722 0C25.0819 0 32.2695 7.35729 32.2695 16.3832ZM16.0973 9.78443C12.5035 9.78443 9.58353 12.7425 9.58353 16.3832C9.58353 20.024 12.5035 22.982 16.0973 22.982C19.6912 22.982 22.6111 20.024 22.6111 16.3832C22.6111 12.7425 19.6912 9.78443 16.0973 9.78443Z" fill="#64BDD4"/>
</g>
<defs>
<clipPath id="clip0">
<rect width="160" height="38" fill="white"/>
</clipPath>
</defs>
</svg>
